<svg width="320" height="76" viewBox="0 0 320 76" fill="none" xmlns="http://www.w3.org/2000/svg">
<path d="M2.20312 19.3034H8.91416V21.9843C12.6882 19.6386 15.876 17.96 21.4146 17.96C33.1596 17.96 41.6322 26.845 41.2969 37.907C41.046 42.7677 39.4506 47.7975 36.0121 51.4022C31.398 56.3473 25.527 58.2736 19.9885 57.7724C16.1298 57.4372 12.3557 55.9277 8.91416 52.8272V71.4133L3.88016 72.6692H2.20312V19.3034ZM20.9946 20.81C15.2052 20.81 12.6065 22.4011 8.91416 25.3357C9.08332 34.5557 8.91416 37.907 8.91416 49.7266C8.91416 49.7266 11.0112 51.9063 14.4498 53.2467C19.5655 55.2575 24.5149 54.7562 27.4518 53.2467C31.9813 50.9009 35.5891 46.7921 35.5891 37.7408C35.5891 29.1909 29.4644 20.81 20.9918 20.81H20.9946Z" fill="#161A11"/>
<path d="M45.2983 38.1605C45.2983 27.0141 53.9372 17.96 64.5069 17.96C75.0765 17.96 83.6337 26.51 83.6337 39.8362H52.0939V41.1766C52.0939 45.7867 55.5326 51.067 60.6511 53.2467C68.1176 56.3473 77.0919 55.0069 81.2043 50.2308L83.7212 50.7349C80.3643 55.8462 73.4023 59.2003 64.4282 58.1104C53.8584 56.8545 45.3012 49.3943 45.3012 38.1635L45.2983 38.1605ZM75.7561 36.6073C76.5028 27.7659 72.895 21.0606 64.5069 21.0606C56.1188 21.0606 52.5956 27.6814 51.009 36.6073H75.7561Z" fill="#161A11"/>
<path d="M101.052 23.5753L96.9423 25.42V57.0175H90.2312V20.5592L95.2651 19.3032H96.9423V22.6574L99.1238 21.652C106.004 18.5514 114.894 15.7014 119.759 21.1479C117.746 22.6574 117.411 22.8235 115.145 24.4175C112.461 21.0663 105.246 21.7365 101.052 23.5782V23.5753Z" fill="#161A11"/>
<path d="M116.944 38.1605C116.944 27.0141 125.583 17.96 136.153 17.96C146.722 17.96 155.279 26.51 155.279 39.8362H123.74V41.1766C123.74 45.7867 127.178 51.067 132.297 53.2467C139.763 56.3473 148.738 55.0069 152.85 50.2308L155.367 50.7349C152.01 55.8462 145.048 59.2003 136.074 58.1104C125.504 56.8545 116.947 49.3943 116.947 38.1635L116.944 38.1605ZM148.569 36.3159C148.149 27.7659 144.541 21.0606 136.153 21.0606C127.765 21.0606 124.241 27.6814 123.821 36.3159H148.569Z" fill="#161A11"/>
<path d="M186.472 24.0794C183.789 20.7254 176.994 21.7336 172.799 23.5753L168.691 25.42V57.0175H161.979V20.5592L167.012 19.3032H168.691V22.6574L170.871 21.652C177.752 18.5514 186.641 15.7014 191.507 21.1479C193.854 23.8289 194.863 27.6026 194.863 31.8775V57.0233H188.152V33.5561C188.152 30.2019 188.152 26.1806 186.475 24.0853L186.472 24.0794Z" fill="#161A11"/>
<path d="M227.68 24.0794C224.997 20.7254 218.201 21.7336 214.008 23.5753L209.897 25.42V57.0175H203.188V20.5592L208.221 19.3032H209.897V22.6574L212.08 21.652C218.959 18.5514 227.85 15.7014 232.714 21.1479C235.062 23.8289 236.072 27.6026 236.072 31.8775V57.0233H229.36V33.5561C229.36 30.2019 229.36 26.1806 227.684 24.0853L227.68 24.0794Z" fill="#161A11"/>
<path d="M248.7 3.12695C250.546 3.12695 251.972 4.55194 251.972 6.39656C251.972 8.24118 250.546 9.83228 248.7 9.83228C246.854 9.83228 245.262 8.32277 245.262 6.39656C245.262 4.47034 246.772 3.12695 248.7 3.12695ZM250.292 19.3031H251.97V57.0202H245.259V20.562L250.292 19.306V19.3031Z" fill="#161A11"/>
<path d="M258.992 38.137C258.992 26.9905 267.635 17.9365 278.201 17.9365C282.981 17.9365 287.344 19.781 290.702 22.7972V20.702L295.736 19.2769H297.412V56.9941H290.702V53.4738C287.347 56.4928 282.984 58.3345 278.201 58.3345C267.632 58.3345 258.992 49.365 258.992 38.134V38.137ZM278.204 55.2369C287.181 55.2369 290.705 47.6107 290.705 38.0554C290.705 28.5 287.181 21.04 278.204 21.04C269.227 21.04 265.704 28.6661 265.704 38.1399C265.704 47.6136 269.227 55.2369 278.204 55.2369Z" fill="#161A11"/>
<path d="M308.189 57.0174V4.24887L313.224 3.12695H314.901V57.0202H308.189V57.0174Z" fill="#161A11"/>
</svg>
